<?xml version="1.0" standalone="no"?><!DOCTYPE svg PUBLIC "-//W3C//DTD SVG 1.1//EN" "http://www.w3.org/Graphics/SVG/1.1/DTD/svg11.dtd"><svg t="1659614476759" class="icon" viewBox="0 0 1024 1024" version="1.1" xmlns="http://www.w3.org/2000/svg" p-id="2582" xmlns:xlink="http://www.w3.org/1999/xlink" width="200" height="200"><defs><style type="text/css">@font-face { font-family: feedback-iconfont; src: url("//at.alicdn.com/t/font_1031158_u69w8yhxdu.woff2?t=1630033759944") format("woff2"), url("//at.alicdn.com/t/font_1031158_u69w8yhxdu.woff?t=1630033759944") format("woff"), url("//at.alicdn.com/t/font_1031158_u69w8yhxdu.ttf?t=1630033759944") format("truetype"); }
</style></defs><path d="M510.58688 511.89248m-490.65984 0a490.65984 490.65984 0 1 0 981.31968 0 490.65984 490.65984 0 1 0-981.31968 0Z" fill="#F2F2F2" p-id="2583"></path><path d="M73.76384 602.5984c40.30464 204.47744 220.52352 358.71744 436.82304 358.71744 216.29952 0 396.51328-154.24 436.82304-358.71744H73.76384z" fill="#C19165" p-id="2584"></path><path d="M71.46496 573.73696H949.7088v28.86144H71.46496z" fill="#DFAD79" p-id="2585"></path><path d="M151.04512 487.53664h47.1552v87.5776h-47.1552z" fill="#A89B92" p-id="2586"></path><path d="M228.52096 453.85216c0 29.76256-24.13056 53.89312-53.89312 53.89312s-53.89312-24.13056-53.89312-53.89312V379.74528c0-29.76256 24.13056-53.89312 53.89312-53.89312s53.89312 24.13056 53.89312 53.89312v74.10688z" fill="#4C9173" p-id="2587"></path><path d="M319.19104 487.53664h47.1552v87.5776h-47.1552z" fill="#A89B92" p-id="2588"></path><path d="M396.66688 453.85216c0 29.76256-24.13056 53.89312-53.89312 53.89312s-53.89312-24.13056-53.89312-53.89312V379.74528c0-29.76256 24.13056-53.89312 53.89312-53.89312s53.89312 24.13056 53.89312 53.89312v74.10688z" fill="#4C9173" p-id="2589"></path><path d="M655.48288 487.53664h47.1552v87.5776h-47.1552z" fill="#A89B92" p-id="2590"></path><path d="M732.9536 453.85216c0 29.76256-24.13056 53.89312-53.89312 53.89312s-53.89312-24.13056-53.89312-53.89312V379.74528c0-29.76256 24.13056-53.89312 53.89312-53.89312s53.89312 24.13056 53.89312 53.89312v74.10688z" fill="#4C9173" p-id="2591"></path><path d="M487.33696 487.53664h47.1552v87.5776h-47.1552z" fill="#A89B92" p-id="2592"></path><path d="M564.80768 453.85216c0 29.76256-24.13056 53.89312-53.89312 53.89312s-53.89312-24.13056-53.89312-53.89312V379.74528c0-29.76256 24.13056-53.89312 53.89312-53.89312s53.89312 24.13056 53.89312 53.89312v74.10688z" fill="#4C9173" p-id="2593"></path><path d="M823.62368 487.53664h47.1552v87.5776h-47.1552z" fill="#A89B92" p-id="2594"></path><path d="M901.09952 453.85216c0 29.76256-24.13056 53.89312-53.89312 53.89312s-53.89312-24.13056-53.89312-53.89312V379.74528c0-29.76256 24.13056-53.89312 53.89312-53.89312s53.89312 24.13056 53.89312 53.89312v74.10688z" fill="#4C9173" p-id="2595"></path><path d="M510.58688 175.16032m-61.8496 0a61.8496 61.8496 0 1 0 123.6992 0 61.8496 61.8496 0 1 0-123.6992 0Z" fill="#FFE48D" p-id="2596"></path></svg>